{"title":"Cowboys And Aliens 2011 TS XViD UnKnOwN","uid":6576028,"size":1178740700,"categoryP":"video","categoryS":"movies","magnet":"?xt=urn:btih:76b10dff269c023203109bac5f6db0f86bfc2d62&amp;dn=Cowboys+And+Aliens+2011+TS+XViD+UnKnOwN&amp;tr=udp%3A%2F%2Ftracker.openbittorrent.com%3A80&amp;tr=udp%3A%2F%2Fopen.demonii.com%3A1337&amp;tr=udp%3A%2F%2Ftracker.coppersurfer.tk%3A6969&amp;tr=udp%3A%2F%2Fexodus.desync.com%3A6969","seeders":6,"leechers":0,"uploader":"HeroMaster","files":-1,"time":1312199899,"description":"::::: UnKnOwN Presents :::::\n\n\n:::: Cowboys And Aliens 2011 TS ::::\n\n\n::NOTES::\n\n\nEncoded By .......:UnKnOwN\nRuntime ..........:1:53\nIMDb URL .........:http://www.imdb.com/title/tt0409847/\nLanguage .........:English\nFile Size ........:1.08gb\nRelease Date ......... 2011\nSource ......... IMAGINE\nFile Type ......... Single AVI\nPS3 Compatible ....... Go for it\nGenre ......... Thriller/Western\n\n\n::Video::\n\n\nID: 0\nFormat: MPEG-4 Visual\nFormat profile: Advanced Simple@L5\nFormat settings, BVOP: Yes\nFormat settings, QPel: No\nFormat settings, GMC: No warppoints\nFormat settings, Matrix: Custom\nCodec ID: XVID\nCodec ID/Hint: XviD\nDuration: 2h 18mn\nBit rate: 1 224 Kbps\nWidth: 680pixels\nHeight: 284 pixels\nDisplay aspect ratio: 2:35\nFrame rate: 29.976 fps\nColor space: YUV\nChroma subsampling: 4:2:0\nBit depth: 8 bits\nScan type: Progressive\nBits/(Pixel*Frame): 0.234\nStream size: 892 MiB (86%)\nWriting library: XviD 1.2.1 (UTC 2008-12-04)\n\n::Audio::\n\n\nID: 1\nFormat: MPEG Audio\nFormat/Info: Version 1\nMode extension: Layer 3\nCodec ID: 2000\nDuration: 1h 53mn\nBit rate mode: Constant\nBit rate: 128Kbps\nChannel(s): 2 channels\nChannel positions: Front: L r\nSampling rate: 44.0 KHz\nBit depth: 16 bits\nStream size: 302 MiB\nAlignment: Aligned on interleaves\nInterleave, duration: 42 ms (1.00 video frame)\nInterleave, preload duration: 512 ms\n\n\n::SYSPNOSIS::\n\n\nA spaceship arrives in Arizona, 1873, to take over the Earth, starting with\nthe Wild West region. A posse of cowboys are all that stand in their way\n\n\n::RELEASE INFO::\n\n\nPulled all the green out,adjusted colors look at comparison screens\nbrightened up dark scenes made about 30 cuts for parts.Nothing done\nto audio just muxed back to our encode complain or enjoy\n\n\n::More Information::\n\n &lt;a href=&quot;\nhttp://leetleech.org/images/97609242793765840964.png&quot; rel=&quot;nofollow&quot; target=&quot;_NEW&quot;&gt;\nhttp://leetleech.org/images/97609242793765840964.png&lt;/a&gt;\n\n\n::Screens::\n\n &lt;a href=&quot;\nhttp://leetleech.org/images/30923079785944462004.png&quot; rel=&quot;nofollow&quot; target=&quot;_NEW&quot;&gt;\nhttp://leetleech.org/images/30923079785944462004.png&lt;/a&gt;\n\n &lt;a href=&quot;\nhttp://leetleech.org/images/54985006106291583862.png&quot; rel=&quot;nofollow&quot; target=&quot;_NEW&quot;&gt;\nhttp://leetleech.org/images/54985006106291583862.png&lt;/a&gt;\n\n &lt;a href=&quot;\nhttp://leetleech.org/images/47420528809746137351.png&quot; rel=&quot;nofollow&quot; target=&quot;_NEW&quot;&gt;\nhttp://leetleech.org/images/47420528809746137351.png&lt;/a&gt;\n\n\nENJOY!","torrent":{"xt":"urn:btih:76b10dff269c023203109bac5f6db0f86bfc2d62","amp;dn":"Cowboys+And+Aliens+2011+TS+XViD+UnKnOwN","amp;tr":["udp%3A%2F%2Ftracker.openbittorrent.com%3A80","udp%3A%2F%2Fopen.demonii.com%3A1337","udp%3A%2F%2Ftracker.coppersurfer.tk%3A6969","udp%3A%2F%2Fexodus.desync.com%3A6969"],"infoHash":"76b10dff269c023203109bac5f6db0f86bfc2d62","infoHashBuffer":{"type":"Buffer","data":[118,177,13,255,38,156,2,50,3,16,155,172,95,109,176,248,107,252,45,98]},"announce":[],"urlList":[]}}